<svg width="106" height="120" viewBox="0 0 106 120" fill="none" xmlns="http://www.w3.org/2000/svg">
<path d="M8.49618 48.145L26.5 36.6145L0 49.9656L53 102.359V0C50.3028 20.0941 46.3649 63.3573 45.7176 65.9466C45.0702 68.5359 39.2443 69.8575 38.4351 68.7786L8.49618 48.145Z" fill="#1E1E1E"/>
<path d="M97.5038 48.145L79.5 36.6145L106 49.9656L53 102.359V0C55.6972 20.0941 59.6351 63.3573 60.2824 65.9466C60.9298 68.5359 66.7557 69.8575 67.5649 68.7786L97.5038 48.145Z" fill="#836008"/>
<path d="M30.9504 90.6259L23.6679 74.2404L53.4046 109.034V119.958L30.9504 90.6259Z" fill="#1E1E1E"/>
<path d="M75.8588 90.4237L83.1412 74.0382L53.4046 108.832V119.756L75.8588 90.4237Z" fill="#836008"/>
</svg>
